<svg width="200" height="200" xmlns="http://www.w3.org/2000/svg" xmlns:xlink="http://www.w3.org/1999/xlink"><defs><path id="a" d="M0 0h166.192v72.93H0z"/></defs><g fill="none" fill-rule="evenodd"><path d="M198.93 114.505c-8.012 54.636-58.797 92.435-113.436 84.424C30.857 190.92-6.94 140.131 1.07 85.495 9.08 30.858 59.867-6.938 114.504 1.07c54.637 8.011 92.436 58.798 84.425 113.435" fill="#F79D00"/><g transform="translate(16.667 62.5)"><mask id="b" fill="#fff"><use xlink:href="#a"/></mask><path d="M74.546 32.72c7.658 0 14.817.067 21.971-.072 1.247-.016 2.297-.745 3.016-1.621.664-.81 1.127-2.218.885-3.169-.382-1.442-1.743-2.031-2.88-2.041-7.095-.064-14.192-.093-21.585-.093l-1.407 6.997m-3.601 18.197c7.658 0 14.817.066 21.972-.073 1.246-.016 2.296-.745 3.015-1.621.665-.81 1.128-2.218.885-3.169-.382-1.442-1.743-2.031-2.879-2.041-7.096-.064-14.193-.093-21.586-.093l-1.407 6.997m37.09 6.644c-6.783 6.37-15.098 6.88-23.836 6.32l-2.113 9.048h-7.27l1.453-8.759h-7.953l-1.943 8.702H58.93l1.68-8.841H39.376l2.687-12.822h6.092l-6.552-25.596-16.982 25.44 6.087.402-2.518 12.351H0l33.565-50.24H52.42l5.471 20.653.666-.001 4.27-20.72 8.197-.439L73.772.032h7.462l-2.56 12.937h8.09c.91-4.25 1.832-8.557 2.775-12.969h7.399l-2.466 13.025c7.727 0 15.612-1.104 21.209 6.062 5.182-3.175 10.677-5.578 16.774-5.844 7.608-.332 15.23-.344 22.846-.455 3.498-.05 6.997-.009 10.89-.009l-2.648 13.245h-3.251c-9.17.012-18.345-.139-27.51.085-7.826.19-14.502 6.09-15.529 13.22-.9 6.258 2.762 11.226 9.084 11.496 9.319.397 18.657.336 27.987.464 1.188.017 2.376.003 4.013.003l-2.553 12.679h-2.93c-7.714 0-15.432-.17-23.14.05-7.932.225-15.381-.832-21.68-6.459" fill="#FFF" mask="url(#b)"/></g></g></svg>