<svg version="1.1" id="GBP" xmlns="http://www.w3.org/2000/svg" x="0" y="0" viewBox="0 0 293.9 293.9" xml:space="preserve"><style>.st0,.st1{fill:#1c2499;enable-background:new}.st1{fill:#00247d}.st2{fill:#fff}.st3{fill:#e5210e}</style><path class="st0" d="M27.9 228c19.9 29.2 50.2 50.6 85.6 59V184.5L27.9 228zm152.7-119.8l85-42.9c-19.9-28.9-50.1-50.1-85.2-58.5v101.9l.2-.5z"/><path class="st1" d="M6.8 180.4c.9 4 2.1 7.9 3.3 11.7l23.2-11.7H6.8zm280.3-66.9c-1-4.2-2.2-8.3-3.5-12.3l-24.3 12.3h27.8zm-3.4 78.7c1.3-3.9 2.4-7.8 3.4-11.8h-26.8l23.4 11.8z"/><path class="st0" d="M113.5 6.8c-35 8.3-65.1 29.5-85 58.2l85 42.9V6.8zm66.9 280.3c35.4-8.4 65.7-29.9 85.6-59l-85.6-43.9v102.9z"/><path class="st1" d="M10.4 100.9c-1.4 4.1-2.6 8.3-3.6 12.6h28.6l-25-12.6z"/><path class="st2" d="M289.6 126.9c-.6-4.5-1.5-9-2.5-13.4h-27.8l24.3-12.3c-2.1-6.3-4.6-12.4-7.5-18.2l-61 30.5h-29.8l84.4-42.1c-1.3-2.1-2.6-4.1-4-6.2l-85 42.9-.2.5V6.8c-4.4-1-8.8-1.9-13.4-2.5v122.6h122.5zM126.9 4.3c-4.5.6-9 1.5-13.4 2.5v101.1L28.5 65c-3.8 5.5-7.3 11.3-10.3 17.4l62.4 31.1H50.8l-38-19c-.8 2.1-1.6 4.2-2.3 6.4l25 12.6H6.8c-1 4.4-1.9 8.8-2.5 13.4h122.6V4.3zM4.3 167c.6 4.5 1.5 9 2.5 13.4h26.5l-23.2 11.7c2.2 6.6 4.8 13 7.9 19.1l61.6-30.8h29.8l-84.9 42.4c1.1 1.8 2.3 3.5 3.4 5.3l85.6-43.5v102.6c4.4 1 8.8 1.9 13.4 2.5V167H4.3z"/><path class="st3" d="M289.6 126.9H167V4.3c-6.6-.9-13.3-1.4-20.1-1.4s-13.5.5-20.1 1.4v122.6H4.3c-.9 6.6-1.4 13.3-1.4 20.1s.5 13.5 1.4 20.1h122.6v122.6c6.6.9 13.3 1.4 20.1 1.4s13.5-.5 20.1-1.4V167h122.6c.9-6.6 1.4-13.3 1.4-20.1s-.6-13.5-1.5-20z"/><path class="st2" d="M167 289.6c4.5-.6 9-1.5 13.4-2.5V184.2L266 228c3.6-5.2 6.8-10.7 9.7-16.4L213 180.4h29.8l38.2 19.1c.9-2.4 1.8-4.8 2.6-7.3l-23.4-11.8H287c1-4.4 1.9-8.8 2.5-13.4H167v122.6z"/><path class="st3" d="M80.6 113.5L18.2 82.4c-2 3.9-3.8 8-5.4 12.1l38 19h29.8zm134.5 0L276 83c-2-4-4.1-7.8-6.4-11.6l-84.4 42.1h29.9zm-2.1 66.9l62.7 31.3c2-3.9 3.8-8 5.4-12.1l-38.2-19.1H213zm-133.4 0L18 211.2c2 4 4.1 7.8 6.4 11.6l84.9-42.4H79.6z"/></svg>