<svg version="1.1" id="EURO" xmlns="http://www.w3.org/2000/svg" x="0" y="0" viewBox="0 0 293.9 293.9" xml:space="preserve"><style>.st1{fill:#ffc900;enable-background:new}</style><circle cx="146.9" cy="146.9" r="144" fill="#1c2499"/><path id="polygon203" class="st1" d="M146.7 36.7l3.6 11.3h11.8l-9.7 6.9 3.6 11-9.3-6.9-9.7 6.9 3.6-11-9.3-6.9H143z"/><path id="polygon203_3_" class="st1" d="M194.9 50.1l3.7 11.4h11.7l-9.7 6.9 3.6 10.9-9.3-6.9-9.7 6.9 3.7-10.9-9.4-6.9h11.8z"/><path id="polygon203_4_" class="st1" d="M229.8 85l3.7 11.4h11.7l-9.7 6.9 3.6 10.9-9.3-6.9-9.7 6.9 3.7-10.9-9.4-6.9h11.8z"/><path id="polygon203_5_" class="st1" d="M243.2 133.3l3.6 11.3h11.8l-9.7 6.9 3.6 11-9.3-6.9-9.7 6.9 3.6-11-9.3-6.9h11.7z"/><path id="polygon203_6_" class="st1" d="M229.8 181.5l3.7 11.4h11.7l-9.7 6.9 3.6 10.9-9.3-6.9-9.7 6.9 3.7-10.9-9.4-6.9h11.8z"/><path id="polygon203_7_" class="st1" d="M194.9 217.5l3.7 11.3h11.7l-9.7 6.9 3.6 10.9-9.3-6.9-9.7 6.9 3.7-10.9-9.4-6.9h11.8z"/><path id="polygon203_8_" class="st1" d="M146.7 229.8l3.6 11.3h11.8l-9.7 6.9 3.6 10.9-9.3-6.8-9.7 6.8 3.6-10.9-9.3-6.9H143z"/><path id="polygon203_9_" class="st1" d="M98.4 217.5l3.7 11.3h11.7l-9.7 6.9 3.7 10.9-9.4-6.9-9.7 6.9 3.7-10.9-9.3-6.9h11.7z"/><path id="polygon203_10_" class="st1" d="M62.5 181.5l3.7 11.4h11.7l-9.7 6.9 3.6 10.9-9.3-6.9-9.7 6.9 3.6-10.9-9.3-6.9h11.8z"/><path id="polygon203_11_" class="st1" d="M50.2 133.3l3.6 11.3h11.8l-9.7 6.9 3.6 11-9.3-6.9-9.7 6.9 3.6-11-9.3-6.9h11.7z"/><path id="polygon203_12_" class="st1" d="M62.5 85l3.7 11.4h11.7l-9.7 6.9 3.6 10.9-9.3-6.9-9.7 6.9 3.6-10.9-9.3-6.9h11.8z"/><path id="polygon203_13_" class="st1" d="M98.4 50.1l3.7 11.4h11.7l-9.7 6.9 3.7 10.9-9.4-6.9-9.7 6.9 3.7-10.9-9.3-6.9h11.7z"/></svg>