<svg version="1.1" id="USA_1_" xmlns="http://www.w3.org/2000/svg" x="0" y="0" viewBox="0 0 293.9 293.9" xml:space="preserve"><style>.st0{fill:#fff}.st1{fill:#e5210e}</style><path class="st0" d="M3.8 158h-.5c.6 7.6 1.7 15.1 3.5 22.3H287c1.7-7.2 2.9-14.7 3.5-22.3H3.8zm212.1-22h74.6c-.6-7.6-1.7-15.1-3.5-22.3h-71.1V136zM70.2 268.9h153.4c9.8-6.2 18.7-13.5 26.7-21.7H43.5c8 8.2 17 15.5 26.7 21.7zM215.9 47.3h34.9c-8.2-8.5-17.4-16-27.4-22.3h-7.5v22.3zm75 99.7c0-1.7 0-3.4-.1-5.1v10.2c.1-1.7.1-3.4.1-5.1zM25.2 224h243.4c4.3-6.7 8-13.9 11.1-21.3H14.1c3.1 7.4 6.8 14.6 11.1 21.3zM215.9 91.7h64c-3.3-7.8-7.2-15.3-11.7-22.4h-52.3v22.4z"/><path class="st1" d="M223.4 25c-2.5-1.5-5-3-7.5-4.4V25h7.5zm-7.5 44.3h52.3c-5.1-7.9-10.9-15.3-17.4-22h-34.9v22zm0 44.4H287c-1.8-7.6-4.2-14.9-7.1-22h-64v22zm0 44.3h74.6c.1-2 .2-3.9.3-5.9v-10.2c-.1-2-.2-3.9-.3-5.9h-74.6v22z"/><path d="M6.8 180.5H287v-.2H6.8v.2z" fill="#b22234"/><path d="M3.8 158h212.1V20.6C195.4 9.4 171.9 3 146.9 3 67.4 3 2.9 67.5 2.9 147c0 3.7.1 7.4.4 11h.5z" fill="#1c2499"/><path class="st1" d="M14.1 202.7h265.7c3-7.1 5.4-14.5 7.2-22.2H6.8c1.9 7.7 4.3 15.1 7.3 22.2zm29.4 44.5h206.8c6.9-7.1 13-14.8 18.3-23.2H25.2c5.3 8.4 11.4 16.1 18.3 23.2zM146.9 291c28.2 0 54.5-8.1 76.7-22.1H70.2c22.2 14 48.5 22.1 76.7 22.1z"/><path class="st0" d="M152.9 133.9l-1.9-6.1-2 6.1h-6.5l5.2 3.8-1.9 6.2 5.2-3.8 5.2 3.8-2-6.2 5.2-3.8zm45.4 0l-2-6.1-2 6.1h-6.5l5.3 3.8-2 6.2 5.2-3.8 5.2 3.8-2-6.2 5.2-3.8zm-90.7 0l-2-6.1-1.9 6.1h-6.5l5.2 3.8-2 6.2 5.2-3.8 5.2 3.8-2-6.2 5.3-3.8zm-45.3 0l-2-6.1-2 6.1h-6.5l5.3 3.8-2 6.2 5.2-3.8 5.2 3.8-2-6.2 5.2-3.8zm-40 0l-2-6.1-2 6.1h-6.5l5.3 3.8-2 6.2 5.2-3.8 5.2 3.8-2-6.2 5.2-3.8zm151.5-35.2l-2-6.1-2 6.1h-6.5l5.3 3.8-2 6.1 5.2-3.8 5.2 3.8-2-6.1 5.2-3.8zm-46.2 0l-2-6.1-1.9 6.1h-6.5l5.2 3.8-2 6.1 5.2-3.8 5.2 3.8-2-6.1 5.3-3.8zm-46.2 0l-1.9-6.1-2 6.1H71l5.2 3.8-1.9 6.1 5.2-3.8 5.2 3.8-2-6.1 5.2-3.8zm-49.1 0l-2-6.1-2 6.1h-6.5l5.3 3.8-2 6.1 5.2-3.8 5.2 3.8-2-6.1 5.2-3.8zm166-32.8l-2-6.1-2 6.1h-6.5l5.3 3.8-2 6.1 5.2-3.7 5.2 3.7-2-6.1 5.2-3.8zm-45.4 0l-1.9-6.1-2 6.1h-6.5l5.2 3.8-1.9 6.1 5.2-3.7 5.2 3.7-2-6.1 5.2-3.8zm-45.3 0l-2-6.1-1.9 6.1h-6.5l5.2 3.8-2 6.1 5.2-3.7 5.2 3.7-2-6.1 5.3-3.8zm-45.3 0l-2-6.1-2 6.1h-6.5l5.3 3.8-2 6.1 5.2-3.7 5.2 3.7-2-6.1 5.2-3.8zm111.5-33.7l-2-6.1-2 6.1h-6.5l5.3 3.9-2 6.1 5.2-3.8 5.2 3.8-2-6.1 5.2-3.9zm-46.2 0l-2-6.1-1.9 6.1h-6.5l5.2 3.9-2 6.1 5.2-3.8 5.2 3.8-2-6.1 5.3-3.9zm-46.2 0l-1.9-6.1-2 6.1H71l5.2 3.9-1.9 6.1 5.2-3.8 5.2 3.8-2-6.1 5.2-3.9z"/></svg>