<svg width="200" height="200" xmlns="http://www.w3.org/2000/svg" xmlns:xlink="http://www.w3.org/1999/xlink"><defs><path id="a" d="M.67.1h141.383v125.46H.67z"/></defs><g fill="none" fill-rule="evenodd"><path d="M198.93 114.505c-8.012 54.636-58.797 92.435-113.436 84.424C30.857 190.92-6.94 140.131 1.07 85.495 9.08 30.858 59.867-6.938 114.504 1.07c54.637 8.011 92.436 58.798 84.425 113.435" fill="#1A1A1A"/><g transform="translate(42.22 50.161)"><mask id="b" fill="#fff"><use xlink:href="#a"/></mask><path d="M125.853 22.307c0-2.227.021-3.86-.008-5.49-.02-1.093.423-1.757 1.528-1.914.114-.016.271.047.345-.01.894-.68 1.776-1.378 2.677-2.048.011-.008.348.28.361.443.092 1.228-.295 2.535.703 3.6.117.126.01.456.017.691.025.899.316 1.002.894.306.648-.78 1.123-1.112 2.26-.34.808.548 2.257.107 3.408.227.167.017.266.702.395 1.078-1.517.02-1.12 1.296-1.501 2.134-.318.701-1.12 1.175-1.665 1.789-.058.066.134.528.273.565.329.087.71.092 1.045.017 2.763-.61 3.792 1.76 5.364 3.165.18.16.077.669.061 1.013-.02.458.007.904-.712.45-.437-.277-1.29-.553-1.552-.337-1.35 1.116-2.885.628-4.315.608-1.182-.017-1.96.403-2.683 1.224-.423.48-.883.81.221.956 1.862.246 3.307 1.062 3.993 2.991.36 1.017 1.054 1.914 1.438 2.925.29.763.234 1.562-.557 2.164-.586.446-.675.256-.77-.346-.041-.254-.408-.69-.54-.66-1.822.417-3.132-.698-3.704-1.975-1-2.23-3.018-2.736-4.81-3.694-1.159-.62-1.51-.513-1.416.544.117 1.303-.665 1.961-1.456 2.574-.807.625-.481 1.003-.029 1.577.11.14-.094.732-.306.862-.206.126-.743.037-.907-.153-1.025-1.2-2.057-2.41-2.925-3.723-.222-.34.007-1.142.26-1.6.482-.872 1.173-1.624 1.699-2.475.498-.807-.035-1.81-1.029-1.815-.847-.003-1.502-.236-2.194-.698-.3-.201-1.005-.138-1.315.092-.637.474-.142.922.172 1.443.265.44.24 1.093.242 1.651.018 3.997.297 8.02-.067 11.984-.403 4.379-1.346 8.73-2.965 12.849-2.18 5.55-5.35 11.472-9.085 16.354a53.857 53.857 0 0 1-7.845 8.299c-5.8 4.936-12.331 8.758-19.768 10.765-3.635.98-7.185 2.341-11.072 2.167-1.544-.07-2.353 1.134-2.728 2.559-.748 2.847-3.094 4.444-4.995 6.374-.422.428-1.154.402-1.178-.474-.02-.735-.155-1.284-.72-1.84-1.003-.99-2.081-.825-2.814.599-.814 1.578-1.197 3.44-2.886 4.435-.273.163-.671.344-.914.253-.211-.078-.36-.519-.403-.818-.065-.461.114-.998-.061-1.388-.128-.285-.757-.621-.998-.525-.903.364-1.74.893-2.599 1.364-.652.36-1.3.725-1.952 1.087.649.417 1.323.797 1.94 1.255 1.083.804 2.37 1.482 3.125 2.536.736 1.025 2.178 2.215.694 3.847-.275.304-.273 1.253-.006 1.595 1.41 1.8-.386 3.082-.662 4.588-.049.263-.724.41-1.11.61-.165-.372-.405-.732-.477-1.123-.083-.454.107-.984-.049-1.395-.23-.606-.653-1.612-1.008-1.619-2.34-.04-3.65-1.636-5.083-3.075-.329-.328-.478-.55-1.025-.136-1.041.784-2.21 1.413-3.373 2.018-2.182 1.137-3.64 2.701-4.316 5.218-.498 1.852-.904 3.91-2.58 5.272-.488.397-.85.764-1.464.237-1.278-1.095-1.509-.346-1.522.87-.003.234-.272.466-.418.7-.166-.167-.335-.33-.497-.5-.16-.166-.437-.329-.451-.511-.144-1.797.385-3.68-.722-5.348l2.305-3.98c2.18-.277 2.352-2.563 3.666-3.718.66-.579-.02-.656-.431-.66-1.64-.02-3.407.385-4.89-.099-2.412-.783-4.016-.042-5.442 1.732-.99 1.23-2.218 1.709-3.58.83-.87-.559-.983.25-1.225.534-.247.288-.175.85-.242 1.292-.1.665-.196 1.33-.295 1.993-.37-.748-.913-1.462-1.069-2.253-.215-1.086.132-2.246-.694-3.268-.202-.25.1-1.11.394-1.53 1.63-2.334 4.048-3.619 6.708-4.089 1.595-.281 3.325-1.554 5.055-.126.162.135.753-.253 1.145-.4-.185-.392-.265-.978-.572-1.147-1.713-.938-3.411-2.016-5.256-2.553-1.015-.295-1.615-.838-2.198-1.485-1.446-1.603-1.405-1.63-3.371-.936-.299.106-.631.11-.948.163.128-.333.18-.731.4-.986.534-.621 1.144-1.177 1.725-1.758.248-.247.502-.489.749-.737.938-.939 1.74 1.427 2.628.142.752-1.088 1.862-1.025 2.813-.8 1.762.415 3.243 1.483 4.427 2.85 1.179 1.36 2.23 2.831 3.509 4.473.156-.633.275-.945.304-1.264.226-2.513.044-4.74-2.822-5.884-.72-.287-2.362-1.198-.788-2.654.117-.11-.137-.969-.368-1.05-1.034-.366-2.005-1.07-3.213-.771-.136.034-.344-.224-.518-.346.186-.113.366-.244.563-.335 1.686-.777 3.354-1.495 4.958.222.256.276 1.014.532 1.14.404.695-.715 1.129-.69 2.031-.125.88.55 1.547.894 1.967 2.001.651 1.719 1.79 3.246 2.64 4.898.241.471.189 1.095.272 1.648.332-.489.881-.945.956-1.47.363-2.53 2.024-4.617 2.337-7.154.052-.422 1.342-.621-.172-1.216-3.522-1.384-6.899-3.157-10.282-4.873-2.042-1.037-3.989-2.262-5.97-3.416-.196-.114-.315-.437-.504-.473-.965-.18-2.022-1.283-2.845-.494-1.393 1.337.981 1.29 1.062 2.19.016.178.243.335.376.504-2.163.928-3.859.096-5.01-1.674-1.061-1.63-2.427-3.44-2.53-5.237-.18-3.158-2.022-5.127-3.725-7.315-.49-.632-1.04-1.218-1.653-1.93-.75 1.525-.328 2.621.282 3.759.165.306-.121.855-.2 1.292-.482-.172-1.22-.203-1.406-.54-1.212-2.205-2.43-4.412-2.6-7.033-.086-1.324-.43-2.631-.68-3.941-.23-1.194-.291-2.481-.81-3.536-.313-.633-.7-1.173-.578-1.873.171-.99-.484-1.461-1.087-1.989-.111.66-.32 1.323-.295 1.977.015.386.534.743.583 1.142.041.343-.264.729-.416 1.095-.302-.235-.704-.41-.892-.716C.685 54.078.404 51.32.885 48.662c.191-1.06.451-2.15.598-3.255.129-.974.426-1.93.688-2.883.2-.734.572-1.44.654-2.183.052-.462-.22-1.344-.477-1.396-1.628-.331-.959-1.312-.615-2.073 1.478-3.268 2.115-6.93 4.618-9.731.55-.616.643-1.62 1.102-2.344.444-.7.059-.661-.422-.732-.862-.126-.878-.769-.448-1.216a238.079 238.079 0 0 1 6.711-6.729c.352-.337 1.003-.426 1.534-.5 2.179-.308 4.184.58 6.259.991.867.172 1.787.215 2.58.558.314.137 1.493.55.465 1.448-1.172 1.02-1.77 2.366-1.56 3.914.152 1.136-.536 1.69-1.18 2.348-1.03 1.051-2.104 2.032-2.778 3.425-.496 1.025-.4 1.713.374 2.432.43.399.806.858 1.25 1.238 1.296 1.11 1.959 2.037 1.022 4.04-.963 2.062.57 6.022 2.302 6.17 1.964.168 1.652 1.386 2.132 2.337.146.29.17.674.376.896 1.761 1.9 3 4.262 4.71 6.101 1.687 1.815 4.328 2.658 7.041 1.998.734-.178 1.439-.48 2.153-.74.405-.147.945-.566 1.17-.432.451.27.911.788 1.037 1.287.215.851-.083 1.731.657 2.588.386.447.609 1.493.685 2.12.398 3.245 2.802 5.266 4.434 7.689 1.641 2.435 4.185 4.09 6.898 5.29 3.792 1.68 10.288.97 12.715-3.68 1.374-2.633 3.221-5.017 4.874-7.5 1.468-2.205 3.245-4.106 5.615-5.35.47-.248 1.058-.28 1.6-.356.05-.007.288.472.216.589-.798 1.298-.339 2.69-.308 4.037.013.582 1.014.826 1.469.487 1.147-.857 1.69-2.66 3.611-2.343.121.02.397-.267.429-.443.262-1.426.66-2.856.68-4.29.039-2.668 1.394-4.829 2.421-7.12.16-.358.659-.616 1.058-.788.146-.063.457.258.692.403-.85.652-.747 1.215-.033 1.988.385.417.217 1.563.593 1.737 1.07.495.71-1.097 1.147-1.148 2.95-.343 2.564-2.52 2.593-4.492.033-2.274-.297-4.594.717-6.754.276-.588.69-1.12 1.102-1.626.088-.107.44.002.67.012-.034.25.022.575-.115.735-.701.82-.043 1.265.456 1.707.759.673.837-.354 1.226-.57 2.096-1.168 2.853-2.569 1.721-5.109-.55-1.236-.645-3.165.305-4.68.166-.265.152-.638.247-.954.177-.584-.49-1.628.581-1.695 1.457-.094.583 1.173.82 1.805.114.306.206.62.309.929.132-.269.234-.559.402-.802.256-.371.49-.824.852-1.044 1.658-1.003 1.641-2.796 1.116-4.022-.442-1.031-.528-1.944-.555-2.94-.026-1.007-1.39-1.893-.598-2.807.756-.871.431-1.733.597-2.601.176-.923.53-.33.843-.052.32.284.66.546.991.818.321-.454.942-.932.907-1.359-.1-1.22.099-2.392-.356-3.704-.862-2.488-.313-5.162.421-7.704.057-.195.234-.355.355-.532.165.165.375.306.487.503.215.377.46.767.54 1.182.412 2.135 1.258 3.82 2.428 5.35.862 1.128 1.64 2.361 2.225 3.653.638 1.408 1.516 2.37 2.963 2.957 2.11.858 3.872 2.236 5.406 3.952 1.328 1.484 2.8 2.84 4.563 4.61" fill="#EEB500" mask="url(#b)"/></g><path d="M146.55 47.667c-.377 1.739-.752 3.48-1.14 5.216-.022.096-.222.161-.232.252-.177 1.81-.13 3.675-.567 5.418-.389 1.552-1.716 2.726-1.895 4.507-.208 2.062-1.431 4.067.013 6.15.105.15-.315.832-.634 1.087-2.83 2.261-3.365 5.438-3.53 8.763-.041.805.11 1.43-1.118 1.658-1.598.297-2.44 1.746-3.101 3.168-.503 1.082-.948 2.191-1.411 3.292-.151.359-.283.727-.424 1.091-.093-.313-.306-.646-.26-.938.225-1.43-.704-3.053.682-4.293-.306-1.798.149-3.575-.38-5.466-.645-2.31-.77-4.775-1.682-7.073-.263-.663-.197-1.53.558-2.214 1.236-1.117 1.248-2.726 1.628-4.263.448-1.815.631-3.577.545-5.377-.068-1.438-.346-2.884-.695-4.286-.313-1.258-2.61-2.443-3.989-2.75-2.409-.536-3.895.833-4.907 2.472-.55.89-.717 2.314-.846 3.482-.193 1.73-.563.804-1.256.35-3.104-2.028-6.004-4.391-9.86-5.067-1.939-.34-3.769-1.26-5.818-1.197-1.755.054-3.512.036-5.268.005-3.061-.055-5.876.852-8.611 2.118-1.579.731-2.817.9-4.586-.321-2.256-1.557-5.083-2.48-7.794-3.122-3.017-.714-6.043-1.53-9.23-1.606-1.236-.029-2.573-.698-3.926-.575-1.52.137-2.754-.728-4.136-1.062-1.269-.308-2.57-.581-3.757-1.104-1.29-.568-2.492-1.365-3.664-2.16-.214-.145-.294-.975-.116-1.136 1.515-1.377 2.612-3.223 4.634-4.05.754-.307.908-.918.046-1.478-.56-.364-.927-1.471-1.747-.322-.516-.442-.568-1.707.08-2.135 2.235-1.476 4.511-3.03 7.38-1.647.801.387 1.4.397 2.18-.169.957-.694 2.051-1.29 3.176-1.625.715-.213 1.19-.535.845-1.07-.356-.552-.799-1.58-1.887-.927-.227.137-.494.206-.742.305-.002-.317-.136-.728.013-.94 1.243-1.757 4.548-2.83 6.678-2.219.627.181 1.274.32 1.871.572 2.219.934 2.21.94 5.166.004.32-.102.72.064 1.045-.029.794-.23.791-.793.293-1.274-.38-.367-.967-.51-1.397-.837-.928-.708.208-1.007.416-1.123.456-.253 1.09-.157 1.62-.315 1.203-.355 4.786-.094 5.699.94 1.853 2.1 4.146.837 6.212 1.174.074.012.416-.624.33-.834-.164-.4-.603-.68-.821-1.07-.243-.438-1.36.228-.985-.719.16-.405.864-.773 1.36-.834 3.054-.374 5.535.914 7.4 3.179.429.521.493 1.094 1.327 1.035.815-.057 1.645-.08 2.455.01.597.068 1.17.345 1.755.528-.592-.535-.137-1.671-1.186-1.993-.3-.092-.487-.566-.726-.865.367-.171.726-.474 1.1-.494 3.747-.184 5.494 1.071 7.356 5.105.223.48.762 1.169 1.14 1.16 1.222-.031 2.049.778 3.075 1.124.196.066.454-.052.682-.086-.14-.872.42-1.896-.555-2.59-.469-.333-.94-.664-1.411-.996.674-.07 1.345-.185 2.02-.202 2.69-.069 4.38 1.426 5.565 3.668.254.48.521.961.697 1.472.683 1.979 2.613 2.378 4.136 3.276.087.05.682-.449.764-.764.345-1.32-.958-1.708-1.521-2.523-.156-.225-.247-.495-.368-.744.33-.053.764-.27.971-.135 1.628 1.063 3.628 1.578 4.505 3.7.795 1.93 2.107 3.315 3.3 4.204.21.156.491.213.74.316.043-.335.235-.75.104-.988-.373-.678-.924-1.258-1.302-1.934-.123-.22-.031-.734.154-.907.179-.167.756-.214.898-.065 1.491 1.572 3.352 2.83 4.244 4.921.171.4.223.932.517 1.183 1.87 1.61 1.98 3.731 2.106 6.008" fill="#EEB500"/><path d="M109.946 74.938c-.817 0-1.635-.022-2.45.015-.191.009-.373.215-.559.33.16.166.3.363.485.492 2.068 1.447 4.287 2.402 6.88 1.968.373-.063.709-.35 1.062-.533-.211-.38-.354-.827-.643-1.132-1.335-1.403-3.093-1.135-4.775-1.14M90.049 71.41c-.231 0-.489-.069-.689.011-1.714.676-3.376 1.53-5.302 1.48-.042-.002-.276 1.002-.13 1.1 1.253.839 2.506 1.773 3.904 2.252.578.198 1.506-.655 2.284-1.01.291-.132.636-.158.908-.316.851-.494 1.426-1.241 1.118-2.237-.289-.939-1.032-1.451-2.093-1.28m39.371-11.67c-.024 1.695.124 3.38-.67 5.014-.627 1.286-1.154 2.327-2.844 2.473-1.7.149-3.191.984-5.101.071-1.41-.674-3.324-.178-4.769.96-1.626 1.283-1.543 1.641-.746 3.752.395 1.045.963.822 1.552.787 1.099-.065 1.796.403 2.02 1.425.51 2.317 1.784 3.627 4.255 3.549.195-.006.395.164.593.252-.19.25-.346.671-.577.72-.985.202-1.999.433-2.99.39-1.175-.051-1.39.461-1.275 1.445.054.463.016.94.008 1.409-.01.655-.291.863-.725.303-.385-.496-1.155-.125-1.487-1.085-.373-1.075-1.393-.853-2.007.256-.213.385-.48.74-.696 1.122-.605 1.076-1.423 1.15-2.106.164-.185-.267-.267-.614-.475-.854-.248-.285-.481-.82-.992-.216-.453.536-.933 1.082-1.505 1.47-.265.18-1.122.02-1.125-.028-.115-1.545-.645-.953-1.302-.318-.915.884-1.282 2.32-2.683 2.702-.219.059-.465.012-.698.015.008-.248-.018-.503.034-.74.07-.316.314-.632.28-.925-.045-.397-.28-.773-.434-1.157-.315.223-.717.384-.93.68-2.248 3.111-1.332 6.22-.155 9.459 1.67 4.596 4.262 8.828 5.265 13.684.866 4.199.887 7.456-1.682 9.847-2.91 2.71-4.69 2.465-7.95.84-3.252-1.622-7.908-8.146-8.822-11.723-.066-.259.127-.757.341-.868.218-.114.758.003.907.205 1.249 1.7 2.719 3.317 3.579 5.208 1.11 2.438 3.408 3.094 5.328 4.33.365.235 1.121.044 1.62-.15 3.137-1.213 4.635-4.22 3.339-7.434-1.624-4.026-3.493-7.963-5.46-11.833-1.021-2.006-1.99-3.945-1.947-6.249.005-.234.092-.615-.014-.682-.853-.54-.387-1.664-.808-2.107-.422-.444-1.494-.436-2.248-.347-1 .118-1.705-.408-2.537-.714-.566-.208-1.24-1.099-1.866-.03-.32-.218-.745-.37-.927-.673-.156-.257.013-.693-.04-1.037-.25-1.593-1.494-2.349-3.009-1.793-.226.083-.43.474-.481.754-.263 1.456.376 2.705 1.306 3.66 1.178 1.211 2.568 2.221 3.928 3.236.166.124 1.028-.267 1.025-.404-.033-1.205.875-1.067 1.428-.87.557.2 1.182.744 1.384 1.285.347.927-.353 2.081.48 2.974.638.682-.195 1.914.948 2.47.179.087.212 1.09-.024 1.318-1.768 1.7-3.141 4.08-6.106 3.89-.217-.014-.432-.083-.649-.126.1-.249.14-.554.31-.738.849-.924 2.046-1.684 1.554-3.223-.106-.33-.465-.772-.757-.814-1.626-.23-3.09.2-4.387 1.255-.774.63-1.612 1.185-2.435 1.753-3.278 2.254-4.971 1.058-7.717-1.792-.746-.775-.901-2.468-2.635-2.015-.028.007-.393-.735-.29-.855.57-.652.646-1.374.73-2.197.057-.549 1.174-.956.383-1.714-.717-.687-1.2-1.694-2.532-1.572-.673.062-1.712.627-2.105-.495-.374-1.07.388-1.752 1.116-2.334.503-.402 1.106-.679 1.666-1.01-.559-.35-1.118-.698-1.675-1.049-1.043-.656-1.536-2.022-2.946-2.276-.126-.022-.318-1.392-.02-1.792 1.246-1.669 3.123-2.55 5.072-2.924 1.753-.337 3.588-.166 5.191.963 1.165.819 2.415 1.517 3.638 2.248.12.072.436.058.47-.011.093-.191.194-.507.102-.644-1.501-2.225-3.653-3.721-6.06-4.666-1.52-.597-3.296-.527-4.952-.783-.314-.048-.61-.222-.912-.337.16-.167.362-.309.478-.503 1.116-1.87 3.337-.99 4.828-1.95.248-.16.75.1 1.026-.045.73-.381 1.793-.749 1.993-1.362.244-.743-.742-1.08-1.482-1.488-3.67-2.021-7.583-3.226-11.622-4.228-3.492-.866-7.06-1.459-10.447-2.761-5.228-2.01-9.78-5-13.333-9.347-1.01-1.236-1.55-2.866-2.243-4.344-.062-.131.297-.543.539-.712.177-.123.57-.173.715-.058a7.18 7.18 0 0 1 1.25 1.232c1.998 2.571 4.81 4.161 7.427 5.902 1.76 1.17 3.975 1.696 6.037 2.346 1.484.468 2.983.958 4.622.76 1.693-.206 3.19.999 4.984.733 1.538-.229 3.19-.328 4.62.653 3.668-.335 6.982 1.122 10.359 2.157 1.674.512 3.125 1.783 5.051 1.371.497-.106 1.305.316 1.317-.611.005-.374-.323-.92-.654-1.102-2.383-1.3-4.761-2.684-7.454-3.2-3.178-.61-6.406-1.017-9.58-1.568-3.577-.62-7.338-.359-10.75-1.972-3.776-1.786-7.875-3.087-9.966-7.207-.492-.97-1.086-1.905-1.442-2.925-.133-.38.181-1.023.465-1.421.642-.9.947.093 1.197.38.732.84 1.28 1.843 2.026 2.667 2.012 2.217 5.18 3.931 9.191 5.798 3.478 1.619 7.1 2.197 10.82 2.798 2.617.423 5.286.566 7.885 1.255 2.535.672 5.03 1.471 7.428 2.456 1.7.699 3.19 2.003 4.638 3.2.8.661 1.433.892 2.434.549 2.533-.872 3.788.033 4.386 2.648.32 1.391 1.096 2.59.02 4.058-.393.533-.119 1.603-.05 2.42.103 1.247 1.485 2.293 2.411 1.563 2.062-1.624 3.556.321 5.307.442 1.51 2.024 2.97.316 4.328-.177 1.838-.667 2.783-2.445 3.94-3.908.742-.938 1.073-1.011 2.626-1.994 1.241-.786 2.152-.382 3.4-.153 2.257.413 4.634.286 6.952.196 1.2-.046 2.558-1.894 2.635-3.277.06-1.054.012-2.115.012-3.173 0-.47-.127-.99.029-1.4.26-.686.7-1.301 1.065-1.947.601.55 1.186 1.059 1.038 2.05-.12.805-.024 1.642-.023 2.465" fill="#EEB500"/><path d="M23.215 104.103c-2.735-.054-4.959-.98-6.588-3.108-.512-.668-.714-1.575-1.058-2.372.888-.295 1.458.382 2.157.69 3.087 1.359 4.151 1.362 6.194.029.288-.188.503-.49.75-.74-.274-.128-.546-.36-.826-.368-1.169-.043-2.35.072-3.509-.047-.97-.098-2.14-.166-2.828-.731-1.656-1.361-3.26-2.769-4.353-4.767-2.242-4.092-.977-8.446 1.745-11.758.178-.216.627-.373.888-.307.21.052.443.474.463.746.061.818.13 1.661.003 2.464-.54 3.391 1.496 5.625 3.851 7.167 5.013 3.282 10.042 1.462 13.578-2.186.163-.17.04-.618.052-.936-.25.086-.501.257-.745.246-1.473-.074-1.856 2.222-3.55 1.626-2.614 1.923-4.818-.307-7.203-.714-1.102-1.532-3.29-2.238-3.308-4.65-.003-.501-.74-.89-.227-1.731.787-1.288.704-3.058 2.057-4.05.206-.149 1.038.084 1.093.277.782 2.806 3.512 2.857 5.509 3.697 1.03.433 2.59-.268 3.87-.607 2.393-.633 4.405-2.92 5.443-5.623 1.559-4.05 3.253-8.049 4.908-12.061.166-.402.462-.748.693-1.122.623-1.014 1.035-2.432 1.937-2.898.582-.3 1.88.796 2.856 1.266.977.47 1.921 1.037 2.94 1.385 1.085.37.88.933.302 1.461-5.147 4.698-7.562 11.124-10.597 17.115-1.41 2.783-2.138 5.93-3.04 8.953-1.004 3.368-2.358 6.593-4.295 9.483-1.181 1.759-2.944 3.048-5.294 3.257-1.306.116-2.58.598-3.868.914m95.684-11.195c-.094.495-.07 1.2-.368 1.715-.311.534-.804 1.21-1.665.54-.42-.328-1.008-.442-1.42-.776-.493-.401-.783-.451-.773.261.02 1.364.018 2.72-.743 3.912-.142.219-.578.306-.889.335-.15.014-.485-.287-.464-.386.232-1.072-.203-2.057-1.08-2.314-.92-.27-2.285-.307-2.973.207-1.269.948-1.934.027-2.18-.63-.608-1.621-1.492-3.182-1.563-4.987-.012-.336-.227-.664-.349-.996.316.057.757.001.928.19.776.856 1.751.416 2.621.453 1.71.072 1.712.014 1.76-1.58.003-.117-.016-.237.003-.351.125-.76.146-2.121.408-2.17 1.016-.19 1.56.561 1.734 1.596.03.179.524.373.818.397 1.441.12 2.245-.99 1.967-2.627-.035-.206.034-.452.131-.641.03-.059.37-.055.466.033 1.42 1.307 2.668 2.773 4.382 3.795.701.418 1.015 1.643 1.295 2.566.165.544.206 1.65-.915.557-.192-.187-.648-.137-.981-.132-.751.007-1.18.187-.15 1.033" fill="#EEB500"/><path d="M32.436 78.385c.133 1.871-.328 1.509-1.875 1.465-.977-.028-1.709-.848-2.99-.09-1.268.751-3.95-1.387-4.271-2.954-.187-.904.29-1.386 1.117-1.083.403.146.742.525 1.147.601.742.14 1.124-.011 1.317-1.02.387-2.02 2.28-2.481 3.77-1.1 1.244 1.154 1.782 2.413 1.785 4.181" fill="#EEB500"/></g></svg>