<svg xmlns="http://www.w3.org/2000/svg" viewBox="0 0 293.9 293.9"><path d="M153.2 290.9c1.7-.1 3.3-.2 4.9-.3h.2c1.6-.1 3.2-.3 4.8-.5.4 0 .7-.1 1.1-.1 1.6-.2 3.3-.4 4.9-.7h.2c1.6-.2 3.1-.5 4.6-.8.3-.1.7-.1 1-.2 1.6-.3 3.2-.7 4.8-1h.2c1.5-.4 3.1-.8 4.6-1.2.3-.1.5-.1.8-.2 1.6-.4 3.2-.9 4.8-1.4h.1c1.5-.5 3.1-1 4.6-1.5.2-.1.4-.1.6-.2 1.6-.6 3.2-1.2 4.7-1.8h.1c1.5-.6 3.1-1.3 4.6-1.9.1-.1.3-.1.4-.2 3.1-1.4 6.2-2.9 9.2-4.5.1 0 .1-.1.2-.1 3.1-1.6 6.1-3.4 9-5.2h.1c1.5-.9 2.9-1.9 4.4-2.9V28.1c-1.4-1-2.9-1.9-4.4-2.9h-.1c-2.9-1.8-5.9-3.6-9-5.2-.1 0-.1-.1-.2-.1-3-1.6-6.1-3.1-9.2-4.5-.1-.1-.3-.1-.4-.2-1.5-.7-3.1-1.3-4.6-1.9h-.1c-1.6-.6-3.1-1.2-4.7-1.8-.2-.1-.4-.1-.6-.2-1.5-.5-3.1-1.1-4.6-1.5h-.1c-1.6-.5-3.2-1-4.8-1.4-.3-.1-.5-.1-.8-.2-1.5-.4-3.1-.8-4.6-1.2h-.2c-1.6-.4-3.2-.7-4.8-1-.3-.1-.7-.1-1-.2-1.5-.3-3.1-.6-4.6-.8h-.2c-1.6-.2-3.2-.5-4.9-.7-.4 0-.7-.1-1.1-.1-1.6-.2-3.2-.3-4.8-.5h-.2c-1.6-.1-3.3-.2-4.9-.3H152c-1.7-.4-3.3-.4-5-.4-1.6 0-3.2 0-4.9.1h-1.2c-1.5.1-3 .1-4.5.3h-.3c-1.6.1-3.2.3-4.8.4-.4 0-.7.1-1.1.1-1.4.2-2.9.4-4.3.6-.2 0-.3 0-.5.1-1.6.2-3.2.5-4.8.8-.3.1-.6.1-.9.2-1.4.3-2.9.6-4.3.9-.1 0-.3.1-.4.1l-4.8 1.2c-.2.1-.4.1-.6.2-1.5.4-2.9.8-4.4 1.3-.1 0-.2.1-.3.1l-4.8 1.5c-.1 0-.2.1-.3.1-1.5.5-3 1.1-4.6 1.7-.1 0-.1.1-.2.1-3.2 1.2-6.3 2.6-9.3 4 0 0-.1 0-.1.1-3.1 1.5-6.1 3-9.1 4.7-3 1.7-5.9 3.4-8.7 5.3v240.5c2.8 1.9 5.7 3.6 8.7 5.3 3 1.7 6 3.2 9.1 4.7h.1c3.1 1.4 6.2 2.8 9.3 4 .1 0 .1.1.2.1 1.5.6 3 1.1 4.6 1.7.1 0 .2.1.3.1 1.6.5 3.2 1.1 4.8 1.5.1 0 .2.1.3.1 1.5.4 2.9.9 4.4 1.3.2.1.4.1.6.2l4.8 1.2c.1 0 .3.1.4.1 1.4.3 2.9.6 4.3.9.3.1.6.1.9.2 1.6.3 3.2.6 4.8.8.2 0 .3 0 .5.1 1.4.2 2.9.4 4.3.6.4 0 .7.1 1.1.1 1.6.2 3.2.3 4.8.4h.3l4.5.3h1.2c1.6.1 3.2.1 4.9.1 1.7 0 3.3 0 5-.1.4-.2.8-.2 1.2-.2z" fill="#fff"/><path d="M3 147c0 50.3 25.8 94.5 64.8 120.3V26.7C28.8 52.5 3 96.7 3 147zm225.2 118.9C266.1 240 291 196.4 291 147c0-49.4-24.9-93-62.8-118.9v237.8zM148 79.5l-11 20.4c-1.2 2.2-3.5 2-5.7.8l-7.9-4.1 5.9 31.4c1.2 5.7-2.7 5.7-4.7 3.3l-13.8-15.5-2.2 7.9c-.3 1-1.4 2.1-3.1 1.9L88 121.7l4.6 16.7c1 3.7 1.8 5.3-1 6.2l-6.2 2.9 30.1 24.4c1.2.9 1.8 2.6 1.4 4.1l-2.6 8.6c10.4-1.2 19.6-3 30-4.1.9-.1 2.4 1.4 2.4 2.5l-1.4 31.7h5l-.8-31.6c0-1.1 1.4-2.6 2.3-2.5 10.4 1.1 19.7 2.9 30 4.1l-2.6-8.6c-.4-1.5.2-3.2 1.4-4.1l30.1-24.4-6.2-2.9c-2.7-1-2-2.5-1-6.2l4.6-16.7-17.5 3.7c-1.7.3-2.8-.8-3.1-1.9l-2.2-7.9-13.8 15.5c-2 2.5-6 2.5-4.7-3.3l5.9-31.4-7.9 4.1c-2.2 1.2-4.4 1.4-5.7-.8" fill="#e5210e"/></svg>