<svg version="1.1" id="Dash" xmlns="http://www.w3.org/2000/svg" x="0" y="0" viewBox="0 0 293.9 293.9" xml:space="preserve"><style>.st1{fill:#fff}</style><circle cx="146.9" cy="147" r="144" fill="#1c75bc"/><path class="st1" d="M247.6 106.3c-.2-3.5-1.2-6.9-3-9.9-1.6-3.1-4.3-5.5-7.5-6.8-3.3-1.6-6.9-2.4-10.6-2.3H88.9L79 116.9h124.7L184 177.3H59.3l-9.9 29.6h138.3c4.1-.1 8.2-.9 12.1-2.3 3.9-2.2 8.3-4.4 12.1-7.5 3.7-2.9 7-6.2 9.9-9.9 2.4-3.6 4.4-7.4 6.1-11.4l18.3-57.4c1.6-3.9 2.1-8.1 1.4-12.1z"/><path class="st1" d="M128.2 133.4H54.8l-9.9 27.3H119l9.2-27.3z"/></svg>