<svg xmlns="http://www.w3.org/2000/svg" viewBox="0 0 293.9 293.9"><circle cx="146.9" cy="147" r="144" fill="#f79d00"/><path d="M208.7 127.8c2.4-18.8-12.1-28.6-31.8-34.9l5.8-25.6-15.7-3.5-5.6 24.9c-4.1-.9-8.3-1.8-12.5-2.6l5.6-25.1-15.5-3.4-5.7 25.6-31.4-7-3.7 16.6s11.5 2.4 11.3 2.5c6.3 1.4 7.5 5.5 7.4 8.8l-15.8 70c-.7 1.9-2.6 4.8-7 3.8.2.2-11.3-2.6-11.3-2.6l-7.3 17.9 31.4 7.2-5.8 25.9 15.5 3.5 5.8-25.6c4.3 1 8.4 2 12.4 2.9l-5.7 25.5 15.6 3.5 5.8-25.8c26.5 4.4 46.3 1.9 54.1-22.1 6.3-19.4-1-30.3-15.1-37.2 10-2.6 17.5-9.4 19.2-23.2m-34.2 50.4c-4.4 19.3-36.9 9.7-47.5 7.3l7.7-34.3c10.5 2.4 44.3 6.8 39.8 27m3.6-50c-4 17.6-31.1 9.3-39.9 7.3l7-31.1c8.8 2.1 37 5.5 32.9 23.8" fill="#fff"/></svg>