<svg width="37" height="38" xmlns="http://www.w3.org/2000/svg" xmlns:xlink="http://www.w3.org/1999/xlink"><defs><path id="a" d="M0 0h31.683v32H0z"/></defs><g fill="none" fill-rule="evenodd"><g transform="translate(3 3)"><mask id="b" fill="#fff"><use xlink:href="#a"/></mask><path d="M31.683 16c0 8.836-7.092 16-15.841 16C7.092 32 0 24.836 0 16S7.093 0 15.842 0s15.841 7.164 15.841 16" fill="#E5E5E5" mask="url(#b)"/></g><path fill="#01CA52" d="M18.631 16.032l-5.951 2.633 5.951-10.1z"/><path fill="#00A040" d="M18.631 22.94l-6.15-3.639 6.15-2.72z"/><path fill="#01CA52" d="M18.631 29.333l-6.218-8.838 6.218 3.835z"/><path fill="#009E3F" d="M19.062 16.032l5.951 2.633-5.951-10.1z"/><path fill="#00792D" d="M19.062 22.94l6.15-3.639-6.15-2.72z"/><path fill="#009E3F" d="M19.07 29.339l6.202-8.849-6.211 3.845z"/></g></svg>