<?xml version="1.0" encoding="utf-8"?>
<!-- Generator: Adobe Illustrator 23.0.3, SVG Export Plug-In . SVG Version: 6.00 Build 0)  -->
<svg version="1.1" id="Layer_1" xmlns="http://www.w3.org/2000/svg" xmlns:xlink="http://www.w3.org/1999/xlink" x="0px" y="0px"
	 viewBox="0 0 302.5 302.5" style="enable-background:new 0 0 302.5 302.5;" xml:space="preserve">
<style type="text/css">
	.st0{fill:#FFFFFF;}
	.st1{stroke:#FFFFFF;stroke-width:5.3407;stroke-miterlimit:10;}
	.st2{filter:url(#Adobe_OpacityMaskFilter);}
	.st3{mask:url(#b_1_);}
	.st4{fill:none;}
	.st5{filter:url(#Adobe_OpacityMaskFilter_1_);}
	.st6{mask:url(#b_3_);}
	.st7{fill:none;stroke:#000000;stroke-width:25.9452;stroke-linecap:square;}
	.st8{fill:#9B9B9B;}
	.st9{fill:none;stroke:#000000;stroke-width:6.3648;}
	.st10{fill:none;stroke:#000000;stroke-width:6.3648;stroke-linecap:square;}
	.st11{filter:url(#Adobe_OpacityMaskFilter_2_);}
	.st12{mask:url(#b_4_);}
	.st13{filter:url(#Adobe_OpacityMaskFilter_3_);}
	.st14{mask:url(#d_1_);}
	.st15{filter:url(#Adobe_OpacityMaskFilter_4_);}
	.st16{mask:url(#f_1_);}
	.st17{stroke:#000000;stroke-width:6.3648;}
	.st18{fill:none;stroke:#000000;stroke-width:2.8931;stroke-opacity:8.000000e-03;}
	.st19{fill:none;stroke:#000000;stroke-width:10.4934;stroke-miterlimit:10;}
	.st20{fill:none;stroke:#000000;stroke-width:3;stroke-miterlimit:10;}
	.st21{fill:#A0A0A0;}
	.st22{fill:#E2E2E2;}
	.st23{enable-background:new    ;}
	.st24{clip-path:url(#SVGID_2_);enable-background:new    ;}
	.st25{fill:#767676;}
	.st26{clip-path:url(#SVGID_4_);enable-background:new    ;}
	.st27{clip-path:url(#SVGID_6_);enable-background:new    ;}
	.st28{fill:#727272;}
	.st29{clip-path:url(#SVGID_8_);enable-background:new    ;}
	.st30{clip-path:url(#SVGID_10_);enable-background:new    ;}
	.st31{clip-path:url(#SVGID_12_);enable-background:new    ;}
	.st32{clip-path:url(#SVGID_14_);enable-background:new    ;}
	.st33{clip-path:url(#SVGID_16_);enable-background:new    ;}
	.st34{clip-path:url(#SVGID_18_);enable-background:new    ;}
	.st35{clip-path:url(#SVGID_20_);enable-background:new    ;}
	.st36{clip-path:url(#SVGID_22_);enable-background:new    ;}
	.st37{fill:#DCDCDC;}
	.st38{fill:#717171;}
	.st39{clip-path:url(#SVGID_24_);enable-background:new    ;}
	.st40{clip-path:url(#SVGID_26_);enable-background:new    ;}
	.st41{clip-path:url(#SVGID_28_);enable-background:new    ;}
	.st42{clip-path:url(#SVGID_30_);enable-background:new    ;}
	.st43{clip-path:url(#SVGID_32_);enable-background:new    ;}
	.st44{clip-path:url(#SVGID_34_);enable-background:new    ;}
	.st45{clip-path:url(#SVGID_36_);enable-background:new    ;}
	.st46{clip-path:url(#SVGID_38_);enable-background:new    ;}
	.st47{clip-path:url(#SVGID_40_);enable-background:new    ;}
	.st48{fill:url(#SVGID_41_);}
	.st49{clip-path:url(#SVGID_43_);enable-background:new    ;}
	.st50{clip-path:url(#SVGID_45_);enable-background:new    ;}
	.st51{clip-path:url(#SVGID_47_);enable-background:new    ;}
	.st52{clip-path:url(#SVGID_49_);enable-background:new    ;}
	.st53{clip-path:url(#SVGID_51_);enable-background:new    ;}
	.st54{clip-path:url(#SVGID_53_);enable-background:new    ;}
	.st55{clip-path:url(#SVGID_55_);enable-background:new    ;}
	.st56{fill:#F2B92A;}
	.st57{clip-path:url(#SVGID_57_);enable-background:new    ;}
	.st58{fill:url(#SVGID_58_);}
	.st59{fill:url(#SVGID_59_);}
	.st60{fill:none;stroke:#000000;stroke-width:11;stroke-miterlimit:10;}
	.st61{clip-path:url(#SVGID_61_);}
	.st62{clip-path:url(#SVGID_63_);fill:#FFFFFF;}
	.st63{clip-path:url(#SVGID_63_);}
	.st64{fill:none;stroke:#FFFFFF;stroke-width:12;stroke-miterlimit:10;}
	.st65{fill:none;stroke:#000000;stroke-width:10;stroke-linecap:round;stroke-miterlimit:10;}
	.st66{fill:none;stroke:#000000;stroke-width:18;stroke-linecap:round;stroke-miterlimit:10;}
	.st67{fill:none;stroke:#000000;stroke-width:4.2311;stroke-linecap:round;stroke-miterlimit:10;}
	.st68{fill:none;stroke:#000000;stroke-width:7.6159;stroke-linecap:round;stroke-miterlimit:10;}
	.st69{filter:url(#Adobe_OpacityMaskFilter_5_);}
	.st70{mask:url(#b_5_);fill:none;stroke:#000000;stroke-width:5;stroke-miterlimit:10;}
	.st71{fill:none;stroke:#000000;stroke-width:2;stroke-miterlimit:10;}
	.st72{filter:url(#Adobe_OpacityMaskFilter_6_);}
	.st73{mask:url(#d_2_);fill:none;stroke:#000000;stroke-width:5;stroke-miterlimit:10;}
	.st74{filter:url(#Adobe_OpacityMaskFilter_7_);}
	.st75{mask:url(#f_2_);fill:none;stroke:#000000;stroke-width:2;stroke-miterlimit:10;}
	.st76{stroke:#FFFFFF;stroke-width:10;stroke-miterlimit:10;}
	.st77{stroke:#FFFFFF;stroke-width:3.4765;stroke-miterlimit:10;}
	.st78{stroke:#FFFFFF;stroke-width:4.0839;stroke-miterlimit:10;}
	.st79{fill:#4F66FF;}
	.st80{fill:none;stroke:#000000;stroke-width:36;stroke-miterlimit:10;}
	.st81{fill:none;stroke:#000000;stroke-width:30;stroke-linejoin:round;stroke-miterlimit:10;}
	.st82{fill:none;stroke:#000000;stroke-width:30;stroke-miterlimit:10;}
	.st83{clip-path:url(#SVGID_65_);fill:none;stroke:#000000;stroke-width:18.5714;stroke-miterlimit:10;}
	.st84{fill:none;stroke:#000000;stroke-miterlimit:10;}
	.st85{fill:#231F20;}
	.st86{fill:#000001;}
	.st87{clip-path:url(#SVGID_67_);}
	.st88{clip-path:url(#SVGID_69_);fill:#1A191A;}
	.st89{clip-path:url(#SVGID_71_);}
	.st90{clip-path:url(#SVGID_73_);fill:#FFFFFF;}
	.st91{clip-path:url(#SVGID_75_);}
	.st92{clip-path:url(#SVGID_77_);fill:#1A191A;}
	.st93{clip-path:url(#SVGID_79_);}
	.st94{clip-path:url(#SVGID_81_);fill:#FFFFFF;}
	.st95{clip-path:url(#SVGID_83_);}
	.st96{clip-path:url(#SVGID_85_);fill:#FFFFFF;}
	.st97{clip-path:url(#SVGID_87_);}
	.st98{clip-path:url(#SVGID_89_);fill:#FFFFFF;}
	.st99{clip-path:url(#SVGID_91_);}
	.st100{clip-path:url(#SVGID_93_);fill:#FFFFFF;}
	.st101{clip-path:url(#SVGID_95_);}
	.st102{clip-path:url(#SVGID_97_);fill:#FFFFFF;}
	.st103{clip-path:url(#SVGID_99_);}
	.st104{clip-path:url(#SVGID_101_);fill:#FFFFFF;}
	.st105{clip-path:url(#SVGID_103_);}
	.st106{clip-path:url(#SVGID_105_);fill:#FFFFFF;}
	.st107{clip-path:url(#SVGID_107_);}
	.st108{clip-path:url(#SVGID_109_);fill:#1A191A;}
	.st109{clip-path:url(#SVGID_111_);}
	.st110{clip-path:url(#SVGID_113_);fill:#FFFFFF;}
	.st111{clip-path:url(#SVGID_115_);}
	.st112{clip-path:url(#SVGID_117_);fill:#1A191A;}
	.st113{clip-path:url(#SVGID_119_);}
	.st114{clip-path:url(#SVGID_121_);fill:#FFFFFF;}
	.st115{clip-path:url(#SVGID_123_);}
	.st116{clip-path:url(#SVGID_125_);fill:#FFFFFF;}
	.st117{clip-path:url(#SVGID_127_);}
	.st118{clip-path:url(#SVGID_129_);fill:#FFFFFF;}
	.st119{clip-path:url(#SVGID_131_);}
	.st120{clip-path:url(#SVGID_133_);fill:#1A191A;}
	.st121{clip-path:url(#SVGID_135_);}
	.st122{clip-path:url(#SVGID_137_);enable-background:new    ;}
	.st123{clip-path:url(#SVGID_139_);}
	.st124{clip-path:url(#SVGID_141_);}
	.st125{clip-path:url(#SVGID_143_);fill:#FFFFFF;}
	.st126{clip-path:url(#SVGID_145_);}
	.st127{clip-path:url(#SVGID_147_);fill:#FFFFFF;}
	.st128{clip-path:url(#SVGID_149_);}
	.st129{clip-path:url(#SVGID_151_);fill:#FFFFFF;}
	.st130{clip-path:url(#SVGID_153_);}
	.st131{clip-path:url(#SVGID_155_);fill:#FFFFFF;}
	.st132{clip-path:url(#SVGID_157_);}
	.st133{clip-path:url(#SVGID_159_);fill:#1A191A;}
	.st134{clip-path:url(#SVGID_161_);}
	.st135{clip-path:url(#SVGID_163_);fill:#FFFFFF;}
	.st136{clip-path:url(#SVGID_165_);}
	.st137{clip-path:url(#SVGID_167_);fill:#FFFFFF;}
	.st138{clip-path:url(#SVGID_169_);}
	.st139{clip-path:url(#SVGID_171_);fill:#1A191A;}
	.st140{clip-path:url(#SVGID_173_);}
	.st141{clip-path:url(#SVGID_175_);fill:#FFFFFF;}
	.st142{clip-path:url(#SVGID_177_);}
	.st143{clip-path:url(#SVGID_179_);fill:#FFFFFF;}
	.st144{clip-path:url(#SVGID_181_);}
	.st145{clip-path:url(#SVGID_183_);enable-background:new    ;}
	.st146{clip-path:url(#SVGID_185_);}
	.st147{clip-path:url(#SVGID_187_);}
	.st148{clip-path:url(#SVGID_189_);fill:#FFFFFF;}
	.st149{clip-path:url(#SVGID_191_);}
	.st150{clip-path:url(#SVGID_193_);fill:#FFFFFF;}
	.st151{fill:none;stroke:#FFFFFF;stroke-width:22;stroke-miterlimit:10;stroke-dasharray:13.5369,18.3715;}
	.st152{fill:none;stroke:#FFFFFF;stroke-width:22;stroke-miterlimit:10;}
	.st153{fill:none;stroke:#FFFFFF;stroke-width:26;stroke-miterlimit:10;}
	.st154{fill:none;stroke:#FFFFFF;stroke-width:26;stroke-miterlimit:10;stroke-dasharray:14.0773,20.1104;}
</style>
<circle cx="151.2" cy="151.2" r="151.2"/>
<g>
	<g>
		<defs>
			<circle id="SVGID_66_" cx="555.2" cy="-2608.3" r="62.8"/>
		</defs>
		<clipPath id="SVGID_2_">
			<use xlink:href="#SVGID_66_"  style="overflow:visible;"/>
		</clipPath>
		<g style="clip-path:url(#SVGID_2_);">
			<defs>
				<rect id="SVGID_68_" x="-1391.3" y="-6648.5" width="2501.3" height="7411.6"/>
			</defs>
			<clipPath id="SVGID_4_">
				<use xlink:href="#SVGID_68_"  style="overflow:visible;"/>
			</clipPath>
		</g>
	</g>
	<g>
		<defs>
			<path id="SVGID_70_" d="M549.1-2602.3c0.5-0.2,1-0.3,1.4-0.5c6-2.1,10.7-5.6,13-11.6c2-4.9-0.6-9.9-5.7-11.4
				c-4.6-1.3-9.6,0.3-12.7,4.3c-3.8,5-5.4,10.6-5.3,16.9c0.1,7.5,5.6,15,16.5,12.9c5.3-1,9.8-3.8,13.9-7.1c0.3-0.2,0.7-0.6,0.7-0.9
				c0.1-2.7,0-5.4,0-8.3c-1.1,0.9-1.9,1.6-2.7,2.2c-4,3.1-8.2,5.6-13.3,6.6C552.2-2598.5,550.1-2599.6,549.1-2602.3z M548-2607.8
				c0.3-4,1.1-7.5,3.8-10.3c0.8-0.8,2.1-1.1,3.2-1.3c0.6-0.1,1.6,0.4,2,0.9c0.9,1.1,1,2.6,0.4,3.9
				C555.5-2610.9,552.5-2608.6,548-2607.8z M581.4-2615.6v40.9l-6.8-6.7l-5.9,5.8l-6.3-6.3l-6.3,6.3l-6.3-6.3l-6.3,6.3l-7.2-7.1
				l-7.2,7.1v-40v-26.7l6.8,6.7l5.9-5.8l6.3,6.3l6.3-6.3l6.3,6.3l6.3-6.3l7.2,7.1l7.2-7.1V-2615.6z"/>
		</defs>
		<clipPath id="SVGID_6_">
			<use xlink:href="#SVGID_70_"  style="overflow:visible;"/>
		</clipPath>
		<g style="clip-path:url(#SVGID_6_);">
			<defs>
				<rect id="SVGID_72_" x="-1391.3" y="-6648.5" width="2501.3" height="7411.6"/>
			</defs>
			<clipPath id="SVGID_8_">
				<use xlink:href="#SVGID_72_"  style="overflow:visible;"/>
			</clipPath>
		</g>
	</g>
</g>
<g>
	<g>
		<defs>
			<circle id="SVGID_74_" cx="326.5" cy="-2607.8" r="62.8"/>
		</defs>
		<clipPath id="SVGID_10_">
			<use xlink:href="#SVGID_74_"  style="overflow:visible;"/>
		</clipPath>
		<g style="clip-path:url(#SVGID_10_);">
			<defs>
				<rect id="SVGID_76_" x="-1391.8" y="-6648.1" width="2501.3" height="7411.6"/>
			</defs>
			<clipPath id="SVGID_12_">
				<use xlink:href="#SVGID_76_"  style="overflow:visible;"/>
			</clipPath>
		</g>
	</g>
	<g>
		<defs>
			<rect id="SVGID_78_" x="292.5" y="-2590.6" width="67.5" height="6.4"/>
		</defs>
		<clipPath id="SVGID_14_">
			<use xlink:href="#SVGID_78_"  style="overflow:visible;"/>
		</clipPath>
		<g style="clip-path:url(#SVGID_14_);">
			<defs>
				<rect id="SVGID_80_" x="-1391.8" y="-6648.1" width="2501.3" height="7411.6"/>
			</defs>
			<clipPath id="SVGID_16_">
				<use xlink:href="#SVGID_80_"  style="overflow:visible;"/>
			</clipPath>
		</g>
	</g>
	<g>
		<defs>
			<rect id="SVGID_82_" x="298.4" y="-2599.4" width="55.8" height="6.4"/>
		</defs>
		<clipPath id="SVGID_18_">
			<use xlink:href="#SVGID_82_"  style="overflow:visible;"/>
		</clipPath>
		<g style="clip-path:url(#SVGID_18_);">
			<defs>
				<rect id="SVGID_84_" x="-1391.8" y="-6648.1" width="2501.3" height="7411.6"/>
			</defs>
			<clipPath id="SVGID_20_">
				<use xlink:href="#SVGID_84_"  style="overflow:visible;"/>
			</clipPath>
		</g>
	</g>
	<g>
		<defs>
			<rect id="SVGID_86_" x="302.2" y="-2620.5" width="6" height="18.3"/>
		</defs>
		<clipPath id="SVGID_22_">
			<use xlink:href="#SVGID_86_"  style="overflow:visible;"/>
		</clipPath>
		<g style="clip-path:url(#SVGID_22_);">
			<defs>
				<rect id="SVGID_88_" x="-1391.8" y="-6648.1" width="2501.3" height="7411.6"/>
			</defs>
			<clipPath id="SVGID_24_">
				<use xlink:href="#SVGID_88_"  style="overflow:visible;"/>
			</clipPath>
		</g>
	</g>
	<g>
		<defs>
			<rect id="SVGID_90_" x="344.9" y="-2620.5" width="6" height="18.3"/>
		</defs>
		<clipPath id="SVGID_26_">
			<use xlink:href="#SVGID_90_"  style="overflow:visible;"/>
		</clipPath>
		<g style="clip-path:url(#SVGID_26_);">
			<defs>
				<rect id="SVGID_92_" x="-1391.8" y="-6648.1" width="2501.3" height="7411.6"/>
			</defs>
			<clipPath id="SVGID_28_">
				<use xlink:href="#SVGID_92_"  style="overflow:visible;"/>
			</clipPath>
		</g>
	</g>
	<g>
		<defs>
			<rect id="SVGID_94_" x="316.6" y="-2620.5" width="6" height="18.3"/>
		</defs>
		<clipPath id="SVGID_30_">
			<use xlink:href="#SVGID_94_"  style="overflow:visible;"/>
		</clipPath>
		<g style="clip-path:url(#SVGID_30_);">
			<defs>
				<rect id="SVGID_96_" x="-1391.8" y="-6648.1" width="2501.3" height="7411.6"/>
			</defs>
			<clipPath id="SVGID_32_">
				<use xlink:href="#SVGID_96_"  style="overflow:visible;"/>
			</clipPath>
		</g>
	</g>
	<g>
		<defs>
			<rect id="SVGID_98_" x="330.9" y="-2620.5" width="6" height="18.3"/>
		</defs>
		<clipPath id="SVGID_34_">
			<use xlink:href="#SVGID_98_"  style="overflow:visible;"/>
		</clipPath>
		<g style="clip-path:url(#SVGID_34_);">
			<defs>
				<rect id="SVGID_100_" x="-1391.8" y="-6648.1" width="2501.3" height="7411.6"/>
			</defs>
			<clipPath id="SVGID_36_">
				<use xlink:href="#SVGID_100_"  style="overflow:visible;"/>
			</clipPath>
		</g>
	</g>
	<g>
		<defs>
			<polygon id="SVGID_102_" points="328.1,-2639.2 294.6,-2623.3 358.5,-2623.3 			"/>
		</defs>
		<clipPath id="SVGID_38_">
			<use xlink:href="#SVGID_102_"  style="overflow:visible;"/>
		</clipPath>
		<g style="clip-path:url(#SVGID_38_);">
			<defs>
				<rect id="SVGID_104_" x="-1391.8" y="-6648.1" width="2501.3" height="7411.6"/>
			</defs>
			<clipPath id="SVGID_40_">
				<use xlink:href="#SVGID_104_"  style="overflow:visible;"/>
			</clipPath>
		</g>
	</g>
</g>
<g>
	<g>
		<defs>
			<circle id="SVGID_106_" cx="80.9" cy="-2609.7" r="62.8"/>
		</defs>
		<clipPath id="SVGID_41_">
			<use xlink:href="#SVGID_106_"  style="overflow:visible;"/>
		</clipPath>
		<g style="clip-path:url(#SVGID_41_);">
			<defs>
				<rect id="SVGID_108_" x="-1409.4" y="-6650" width="2501.3" height="7411.6"/>
			</defs>
			<clipPath id="SVGID_43_">
				<use xlink:href="#SVGID_108_"  style="overflow:visible;"/>
			</clipPath>
		</g>
	</g>
	<g>
		<defs>
			<path id="SVGID_110_" d="M107.8-2598.2c0-1.4-1.1-2.6-2.6-2.6c-1.4,0-2.6,1.1-2.6,2.6c0,1.4,1.1,2.6,2.6,2.6
				C106.6-2595.6,107.8-2596.8,107.8-2598.2z M107.8-2621.3c0-1.4-1.1-2.6-2.6-2.6c-1.4,0-2.6,1.1-2.6,2.6c0,1.4,1.1,2.6,2.6,2.6
				C106.6-2618.7,107.8-2619.9,107.8-2621.3z M61.7-2598.2c0-1.4-1.1-2.6-2.6-2.6c-1.4,0-2.6,1.1-2.6,2.6c0,1.4,1.1,2.6,2.6,2.6
				C60.5-2595.6,61.7-2596.8,61.7-2598.2z M61.7-2621.3c0-1.4-1.1-2.6-2.6-2.6c-1.4,0-2.6,1.1-2.6,2.6c0,1.4,1.1,2.6,2.6,2.6
				C60.5-2618.7,61.7-2619.9,61.7-2621.3z M92.4-2598.2v-7.7c-0.3-0.1-0.3,0-0.4,0.2c-1.1,3.5-3.5,5.9-7,7c-0.3,0.1-0.3,0.1-0.2,0.4
				H92.4z M84.7-2618.7c0,0.3,0,0.3,0.3,0.4c3.5,1.1,5.9,3.5,7,7c0.1,0.3,0.1,0.3,0.4,0.2v-7.6H84.7z M82.2-2618.7
				c-3.8,0.2-6.8,1.7-8.8,5.1c-2.1,3.6-2,7.3,0.3,10.8c2,3,4.9,4.5,8.5,4.6V-2618.7z M51.4-2588v-41h61.5v41H51.4z"/>
		</defs>
		<clipPath id="SVGID_45_">
			<use xlink:href="#SVGID_110_"  style="overflow:visible;"/>
		</clipPath>
		<g style="clip-path:url(#SVGID_45_);">
			<defs>
				<rect id="SVGID_112_" x="-1409.4" y="-6650" width="2501.3" height="7411.6"/>
			</defs>
			<clipPath id="SVGID_47_">
				<use xlink:href="#SVGID_112_"  style="overflow:visible;"/>
			</clipPath>
		</g>
	</g>
</g>
<g>
	<g>
		<defs>
			<circle id="SVGID_114_" cx="-149.1" cy="-2605.9" r="61.5"/>
		</defs>
		<clipPath id="SVGID_49_">
			<use xlink:href="#SVGID_114_"  style="overflow:visible;"/>
		</clipPath>
		<g style="clip-path:url(#SVGID_49_);">
			<defs>
				<rect id="SVGID_116_" x="-1412.5" y="-6644.9" width="2501.3" height="7411.6"/>
			</defs>
			<clipPath id="SVGID_51_">
				<use xlink:href="#SVGID_116_"  style="overflow:visible;"/>
			</clipPath>
		</g>
	</g>
	<g>
		<defs>
			<path id="SVGID_118_" d="M-125.5-2611.7c0-1.5-1.2-2.7-2.7-2.7c-1.5,0-2.7,1.2-2.7,2.7c0,1.5,1.2,2.7,2.7,2.7
				C-126.8-2609-125.5-2610.2-125.5-2611.7z M-169.2-2611.7c0-1.5-1.2-2.7-2.7-2.7c-1.5,0-2.7,1.2-2.7,2.7c0,1.5,1.2,2.7,2.7,2.7
				C-170.4-2609-169.2-2610.2-169.2-2611.7z M-141.5-2612.6c0-4.8-3.9-8.7-8.7-8.7c-4.8,0-8.7,3.9-8.7,8.7s3.9,8.7,8.7,8.7
				C-145.4-2603.9-141.5-2607.8-141.5-2612.6z M-180.6-2597.7v-29.6h61.5v29.6H-180.6z"/>
		</defs>
		<clipPath id="SVGID_53_">
			<use xlink:href="#SVGID_118_"  style="overflow:visible;"/>
		</clipPath>
		<g style="clip-path:url(#SVGID_53_);">
			<defs>
				<rect id="SVGID_120_" x="-1412.5" y="-6644.9" width="2501.3" height="7411.6"/>
			</defs>
			<clipPath id="SVGID_55_">
				<use xlink:href="#SVGID_120_"  style="overflow:visible;"/>
			</clipPath>
		</g>
	</g>
	<g>
		<defs>
			<rect id="SVGID_122_" x="-180.6" y="-2594.8" width="61.5" height="3.2"/>
		</defs>
		<clipPath id="SVGID_57_">
			<use xlink:href="#SVGID_122_"  style="overflow:visible;"/>
		</clipPath>
		<g style="clip-path:url(#SVGID_57_);">
			<defs>
				<rect id="SVGID_124_" x="-1412.5" y="-6644.9" width="2501.3" height="7411.6"/>
			</defs>
			<clipPath id="SVGID_58_">
				<use xlink:href="#SVGID_124_"  style="overflow:visible;"/>
			</clipPath>
		</g>
	</g>
	<g>
		<defs>
			<rect id="SVGID_126_" x="-180.6" y="-2588.8" width="61.5" height="3.2"/>
		</defs>
		<clipPath id="SVGID_59_">
			<use xlink:href="#SVGID_126_"  style="overflow:visible;"/>
		</clipPath>
		<g style="clip-path:url(#SVGID_59_);">
			<defs>
				<rect id="SVGID_128_" x="-1412.5" y="-6644.9" width="2501.3" height="7411.6"/>
			</defs>
			<clipPath id="SVGID_61_">
				<use xlink:href="#SVGID_128_"  style="overflow:visible;"/>
			</clipPath>
		</g>
	</g>
</g>
<g>
	<g>
		<defs>
			<circle id="SVGID_130_" cx="-397.7" cy="-2603.9" r="61.5"/>
		</defs>
		<clipPath id="SVGID_63_">
			<use xlink:href="#SVGID_130_"  style="overflow:visible;"/>
		</clipPath>
		<g class="st63">
			<defs>
				<rect id="SVGID_132_" x="-1435.7" y="-6642.9" width="2501.3" height="7411.6"/>
			</defs>
			<clipPath id="SVGID_65_">
				<use xlink:href="#SVGID_132_"  style="overflow:visible;"/>
			</clipPath>
		</g>
	</g>
	<g>
		<defs>
			<rect id="SVGID_134_" x="-428.5" y="-2623.9" width="61.4" height="27.6"/>
		</defs>
		<clipPath id="SVGID_67_">
			<use xlink:href="#SVGID_134_"  style="overflow:visible;"/>
		</clipPath>
		<g class="st87">
			<defs>
				<rect id="SVGID_136_" x="-1435.7" y="-6642.9" width="2501.3" height="7411.6"/>
			</defs>
			<clipPath id="SVGID_69_">
				<use xlink:href="#SVGID_136_"  style="overflow:visible;"/>
			</clipPath>
		</g>
	</g>
	<g>
		<defs>
			<path id="SVGID_144_" d="M-428.4-2584.1c6.4-5.7,12.4-11.2,18.7-16.8c4,3.4,7.9,6.7,11.9,10.2c4-3.4,7.9-6.7,11.9-10.2
				c6.1,5.5,12.3,11,18.7,16.8H-428.4z"/>
		</defs>
		<clipPath id="SVGID_71_">
			<use xlink:href="#SVGID_144_"  style="overflow:visible;"/>
		</clipPath>
		<g class="st89">
			<defs>
				<rect id="SVGID_146_" x="-1435.7" y="-6642.9" width="2501.3" height="7411.6"/>
			</defs>
			<clipPath id="SVGID_73_">
				<use xlink:href="#SVGID_146_"  style="overflow:visible;"/>
			</clipPath>
		</g>
	</g>
	<g>
		<defs>
			<path id="SVGID_148_" d="M-413.1-2604c-5.2,4.6-10.1,9.1-15.4,13.8v-27.5C-423.3-2613.1-418.3-2608.6-413.1-2604"/>
		</defs>
		<clipPath id="SVGID_75_">
			<use xlink:href="#SVGID_148_"  style="overflow:visible;"/>
		</clipPath>
		<g class="st91">
			<defs>
				<rect id="SVGID_150_" x="-1435.7" y="-6642.9" width="2501.3" height="7411.6"/>
			</defs>
			<clipPath id="SVGID_77_">
				<use xlink:href="#SVGID_150_"  style="overflow:visible;"/>
			</clipPath>
		</g>
	</g>
	<g>
		<defs>
			<path id="SVGID_152_" d="M-367.1-2590.3c-5.2-4.6-10.1-9.1-15.3-13.7c5.1-4.6,10.1-9,15.3-13.7V-2590.3z"/>
		</defs>
		<clipPath id="SVGID_79_">
			<use xlink:href="#SVGID_152_"  style="overflow:visible;"/>
		</clipPath>
		<g class="st93">
			<defs>
				<rect id="SVGID_154_" x="-1435.7" y="-6642.9" width="2501.3" height="7411.6"/>
			</defs>
			<clipPath id="SVGID_81_">
				<use xlink:href="#SVGID_154_"  style="overflow:visible;"/>
			</clipPath>
		</g>
	</g>
</g>
<g>
	<g>
		<defs>
			<circle id="SVGID_156_" cx="-636.5" cy="-2605.9" r="61.5"/>
		</defs>
		<clipPath id="SVGID_83_">
			<use xlink:href="#SVGID_156_"  style="overflow:visible;"/>
		</clipPath>
		<g class="st95">
			<defs>
				<rect id="SVGID_158_" x="-1448.9" y="-6644.9" width="2501.3" height="7411.6"/>
			</defs>
			<clipPath id="SVGID_85_">
				<use xlink:href="#SVGID_158_"  style="overflow:visible;"/>
			</clipPath>
		</g>
	</g>
	<g>
		<defs>
			<rect id="SVGID_160_" x="-667.2" y="-2626.4" width="61.5" height="10.3"/>
		</defs>
		<clipPath id="SVGID_87_">
			<use xlink:href="#SVGID_160_"  style="overflow:visible;"/>
		</clipPath>
		<g class="st97">
			<defs>
				<rect id="SVGID_162_" x="-1448.9" y="-6644.9" width="2501.3" height="7411.6"/>
			</defs>
			<clipPath id="SVGID_89_">
				<use xlink:href="#SVGID_162_"  style="overflow:visible;"/>
			</clipPath>
		</g>
	</g>
	<g>
		<defs>
			<path id="SVGID_164_" d="M-629.6-2593.4h13.9v-5.7h-13.9V-2593.4z M-667.2-2585.4h61.5v-23.1h-61.5V-2585.4z"/>
		</defs>
		<clipPath id="SVGID_91_">
			<use xlink:href="#SVGID_164_"  style="overflow:visible;"/>
		</clipPath>
		<g class="st99">
			<defs>
				<rect id="SVGID_166_" x="-1448.9" y="-6644.9" width="2501.3" height="7411.6"/>
			</defs>
			<clipPath id="SVGID_93_">
				<use xlink:href="#SVGID_166_"  style="overflow:visible;"/>
			</clipPath>
		</g>
	</g>
</g>
<g>
	<g>
		<defs>
			<circle id="SVGID_168_" cx="77" cy="-2354.7" r="62.8"/>
		</defs>
		<clipPath id="SVGID_95_">
			<use xlink:href="#SVGID_168_"  style="overflow:visible;"/>
		</clipPath>
		<g class="st101">
			<defs>
				<rect id="SVGID_170_" x="-508.6" y="-6395" width="2501.3" height="7411.6"/>
			</defs>
			<clipPath id="SVGID_97_">
				<use xlink:href="#SVGID_170_"  style="overflow:visible;"/>
			</clipPath>
		</g>
	</g>
	<g>
		<defs>
			<path id="SVGID_172_" d="M98.3-2375.7c0,0.2,0,0.3-0.1,0.5c-0.2,1-0.9,1.6-1.8,1.9c-1,0.3-1.8,0.1-2.6-0.6
				c-1.4-1.3-2.9-2.5-4.6-3.5c-2.1-1.2-4.3-2.1-6.7-2.7c-1.1-0.3-2.3-0.4-3.4-0.5c-1.5-0.1-3-0.1-4.5,0c-2.1,0.2-4.2,0.6-6.3,1.3
				c-2.6,0.9-5,2.3-7.1,4.1c-0.5,0.5-1,1-1.6,1.4c-1.5,1.3-3.9,0.4-4.2-1.5c0-0.1,0-0.2-0.1-0.3v-0.4c0,0,0-0.1,0-0.1
				c0.1-0.7,0.4-1.2,0.8-1.6c1-1,2.1-1.9,3.3-2.7c2.3-1.6,4.8-2.9,7.4-3.8c2.8-1,5.6-1.5,8.5-1.6c1.9-0.1,3.8,0,5.7,0.3
				c1.7,0.2,3.3,0.6,4.9,1.1c1.9,0.6,3.8,1.4,5.5,2.4c2.1,1.2,4,2.7,5.8,4.4c0.3,0.3,0.5,0.6,0.6,0.9c0.1,0.3,0.1,0.6,0.2,0.9
				V-2375.7z"/>
		</defs>
		<clipPath id="SVGID_99_">
			<use xlink:href="#SVGID_172_"  style="overflow:visible;"/>
		</clipPath>
		<g class="st103">
			<defs>
				<rect id="SVGID_174_" x="-508.6" y="-6395" width="2501.3" height="7411.6"/>
			</defs>
			<clipPath id="SVGID_101_">
				<use xlink:href="#SVGID_174_"  style="overflow:visible;"/>
			</clipPath>
		</g>
	</g>
	<g>
		<defs>
			<path id="SVGID_176_" d="M89.8-2366.5c-0.7,0-1.4-0.3-1.9-0.8c-1.3-1.3-2.8-2.3-4.4-3.1c-1.4-0.7-2.9-1.1-4.5-1.3
				c-1.1-0.2-2.2-0.2-3.3-0.1c-1.8,0.1-3.5,0.6-5.1,1.3c-1.8,0.8-3.4,1.9-4.8,3.3c-0.9,0.8-2,1-3.1,0.5c-1.6-0.8-2-2.9-0.7-4.2
				c1.5-1.5,3.2-2.8,5.1-3.8c1.9-1,3.9-1.7,6-2.1c1.6-0.3,3.2-0.4,4.8-0.3c2.8,0.1,5.5,0.8,8,2c2.2,1,4.1,2.4,5.8,4.1
				c0.8,0.8,1,1.7,0.6,2.7c-0.4,1-1.1,1.6-2.2,1.7c0,0,0,0-0.1,0C90-2366.5,89.9-2366.5,89.8-2366.5"/>
		</defs>
		<clipPath id="SVGID_103_">
			<use xlink:href="#SVGID_176_"  style="overflow:visible;"/>
		</clipPath>
		<g class="st105">
			<defs>
				<rect id="SVGID_178_" x="-508.6" y="-6395" width="2501.3" height="7411.6"/>
			</defs>
			<clipPath id="SVGID_105_">
				<use xlink:href="#SVGID_178_"  style="overflow:visible;"/>
			</clipPath>
		</g>
	</g>
	<g>
		<defs>
			<rect id="SVGID_180_" x="45.6" y="-2385.9" width="62.8" height="59.3"/>
		</defs>
		<clipPath id="SVGID_107_">
			<use xlink:href="#SVGID_180_"  style="overflow:visible;"/>
		</clipPath>
		<g class="st107">
			<defs>
				<rect id="SVGID_182_" x="-508.6" y="-6395" width="2501.3" height="7411.6"/>
			</defs>
			<clipPath id="SVGID_109_">
				<use xlink:href="#SVGID_182_"  style="overflow:visible;"/>
			</clipPath>
		</g>
	</g>
</g>
<g>
	<polygon class="st0" points="187.9,116.1 141.4,141.9 142.9,161.1 162.1,162.6 	"/>
	<g>
		<path class="st0" d="M195.9,199c-2.9,2.6-6,4.9-9.2,7l0,0c-10.3,6.4-22.1,9.7-34.3,9.7c-35.9,0-65.2-29.2-65.2-65.2
			c0-9.3,1.9-18.3,5.7-26.6c9.5-21.2,29.6-35.7,52.4-38.1l0,0c3.8-0.4,7.8-0.5,11.6-0.2l1.5-21.9c-2-0.1-4-0.2-6.1-0.2v-0.1
			c-10.3,0-20.4,1.9-29.8,5.3l0-0.1c-4.8,1.8-9.6,4-14,6.5l0,0.1c-6,3.5-11.7,7.7-16.7,12.6l-0.1-0.1c-3.7,3.6-7.1,7.5-10.2,11.7
			l0.1,0.1c-3.5,4.8-6.5,9.9-8.9,15.4c-0.4,1-0.8,1.9-1.2,2.9l-0.1,0c-1.9,4.8-3.5,9.8-4.5,14.8l0.1,0c-1.2,5.9-1.8,11.9-1.8,18
			c0,48.1,39.1,87.2,87.2,87.2c17.5,0,34.3-5.2,48.7-14.9l0,0c3.3-2.3,6.5-4.7,9.5-7.4L195.9,199z"/>
		<path class="st0" d="M206.2,187.2l18.2,12.4c2.9-4.3,5.4-8.8,7.5-13.5l-20.1-9C210.3,180.6,208.4,184,206.2,187.2z"/>
		<path class="st0" d="M217.5,150.4l0,0.2c0,3.9-0.3,7.8-1,11.5l21.7,3.9c0.9-5,1.4-10.2,1.4-15.5v-0.1H217.5z"/>
		<path class="st0" d="M215.6,134.9l21.4-5.3c-1.2-5-2.9-9.9-5-14.6l-20.1,9C213.4,127.5,214.6,131.2,215.6,134.9z"/>
		<path class="st0" d="M203.7,110.6L221.1,97c-3.2-4.1-6.7-7.9-10.5-11.3l-14.7,16.4C198.7,104.7,201.3,107.5,203.7,110.6z"/>
		<path class="st0" d="M193.3,73.7c-4.6-2.4-9.3-4.5-14.3-6.1l-6.8,20.9c3.7,1.2,7.2,2.7,10.6,4.5L193.3,73.7z"/>
	</g>
</g>
</svg>
