<svg version="1.1" id="Layer_1" xmlns="http://www.w3.org/2000/svg" xmlns:xlink="http://www.w3.org/1999/xlink" x="0" y="0" viewBox="0 0 200 200" xml:space="preserve"><style>.st9{display:none}.st14{display:inline}</style><g id="Group_4_"><path id="Fill-1_4_" d="M198.9 114.5c-8 54.6-58.8 92.4-113.4 84.4-54.6-8-92.4-58.8-84.4-113.4 8-54.6 58.8-92.4 113.4-84.4 54.6 8 92.4 58.8 84.4 113.4" fill="#29b5e2"/></g><g id="Icons_x2F_currency_x2F_Export_x2F_BCHABC_1_"><g id="Group_1_" class="st9"><path id="Fill-1_1_" d="M198.9 114.5c-8 54.6-58.8 92.4-113.4 84.4S-6.9 140.1 1.1 85.5 59.9-6.9 114.5 1.1s92.4 58.8 84.4 113.4" display="inline" fill="#f79d00"/></g></g><g class="st9"><g class="st14"><defs><path id="SVGID_7_" d="M85.9 147.4c5.6-8 3.7-19.1-4.3-24.7-8-5.7-19-3.8-24.5 4.2-.1.2-.2.4-.4.6-9.7 14.4-11.4 30.3-3.6 35.9 7.8 5.6 22.2-1.4 32.4-15.5.1-.1.3-.3.4-.5"/></defs><clipPath id="SVGID_2_"><use xlink:href="#SVGID_7_" overflow="visible"/></clipPath><path transform="rotate(-14.999 67.877 141.781)" clip-path="url(#SVGID_2_)" fill-rule="evenodd" clip-rule="evenodd" fill="#ed8117" d="M43.4 118.4h49v46.8h-49z"/></g><g class="st14"><defs><path id="SVGID_9_" d="M84.1 141.7c3.9-5.5 2.6-13.1-2.9-16.9-5.5-3.8-13.2-2.5-17.2 3-.1.1-.2.3-.3.4-6.9 9.9-8.1 20.8-2.6 24.6 5.4 3.8 15.5-1 22.7-10.7.1-.1.2-.3.3-.4"/></defs><clipPath id="SVGID_4_"><use xlink:href="#SVGID_9_" overflow="visible"/></clipPath><path transform="rotate(-14.999 71.533 137.893)" clip-path="url(#SVGID_4_)" fill-rule="evenodd" clip-rule="evenodd" fill="#eebb18" d="M53.7 121.2h35.6v33.4H53.7z"/></g></g><g class="st9"><defs><path id="SVGID_11_" d="M86.7 91.3c-5.4-3.7-32.4-18.8-59.4 15.7-.8 1.1-1.2 2.6 1 2 6.4-2 20.8-4.3 37.6 7.3 22.6 15.7 20.8-25 20.8-25"/></defs><clipPath id="SVGID_6_"><use xlink:href="#SVGID_11_" overflow="visible"/></clipPath><g clip-path="url(#SVGID_6_)"><defs><path id="SVGID_13_" d="M14.5 29.9h163V188h-163z"/></defs><clipPath id="SVGID_8_"><use xlink:href="#SVGID_13_" overflow="visible"/></clipPath><path transform="rotate(-14.999 58.055 105.127)" clip-path="url(#SVGID_8_)" fill-rule="evenodd" clip-rule="evenodd" fill="#5b6a72" d="M24.6 83.9h66.9v42.3H24.6z"/></g><g class="st14"><defs><path id="SVGID_15_" d="M110.3 108.4c5.3 3.7 28.5 23.8 5.2 60.2-.7 1.1-2.1 2-2.2-.3-.3-6.6-2.9-20.7-19.4-32.4-22.2-15.7 16.4-27.5 16.4-27.5"/></defs><clipPath id="SVGID_10_"><use xlink:href="#SVGID_15_" overflow="visible"/></clipPath><path transform="rotate(-14.999 108.971 140.013)" clip-path="url(#SVGID_10_)" fill-rule="evenodd" clip-rule="evenodd" fill="#5b6a72" d="M88.9 107.7H129v64.7H88.9z"/></g></g><path d="M142.7 36c-2.1-1.5-40.8 1-55.2 24.9-14.5 23.9-27 47.1-29.6 51.6-2.6 4.5-1.1 6.9 3.4 10.2 2.1 1.5 8 5.6 13.8 9.7 5.8 4.1 11.7 8.3 13.8 9.7 4.6 3.2 7.4 3.8 10.7-.2 3.3-3.9 20.9-23.7 38.4-45.4 17.5-21.6 6.8-59 4.7-60.5" fill="#dcf2f9"/><path d="M100.7 66.5c5-7.1 14.7-8.7 21.8-3.8 7.1 5 8.7 14.7 3.8 21.8-5 7.1-14.7 8.7-21.8 3.8-7.1-5-8.8-14.7-3.8-21.8" fill="#5b6a72"/><g class="st9"><g class="st14"><defs><path id="SVGID_29_" d="M85.9 147.4c5.6-8 3.7-19.1-4.3-24.7-8-5.7-19-3.8-24.5 4.2-.1.2-.2.4-.4.6-9.7 14.4-11.4 30.3-3.6 35.9 7.8 5.6 22.2-1.4 32.4-15.5.1-.1.3-.3.4-.5"/></defs><clipPath id="SVGID_12_"><use xlink:href="#SVGID_29_" overflow="visible"/></clipPath><path transform="rotate(-14.999 67.877 141.781)" clip-path="url(#SVGID_12_)" fill-rule="evenodd" clip-rule="evenodd" fill="#ed8117" d="M43.4 118.4h49v46.8h-49z"/></g><g class="st14"><defs><path id="SVGID_31_" d="M84.1 141.7c3.9-5.5 2.6-13.1-2.9-16.9-5.5-3.8-13.2-2.5-17.2 3-.1.1-.2.3-.3.4-6.9 9.9-8.1 20.8-2.6 24.6 5.4 3.8 15.5-1 22.7-10.7.1-.1.2-.3.3-.4"/></defs><clipPath id="SVGID_14_"><use xlink:href="#SVGID_31_" overflow="visible"/></clipPath><path transform="rotate(-14.999 71.533 137.893)" clip-path="url(#SVGID_14_)" fill-rule="evenodd" clip-rule="evenodd" fill="#eebb18" d="M53.7 121.2h35.6v33.4H53.7z"/></g></g><path d="M142.7 36c-2.1-1.5-40.8 1-55.2 24.9C82.3 69.5 77.3 78 73 85.6c-11.6-2.4-28.7-.4-45.7 21.4-.8 1.1-1.2 2.6 1 1.9 5.4-1.7 16.5-3.6 29.9 2.9-.1.2-.3.5-.4.6-2.6 4.5-1.1 6.9 3.4 10.2-1.6 1.1-3.1 2.6-4.3 4.3-.2.2-.3.4-.4.6-9.8 14.4-11.4 30.4-3.5 35.9 7.8 5.6 22.2-1.3 32.3-15.5.2-.2.3-.4.4-.5 1.2-1.8 2-3.6 2.6-5.6.1.1.3.2.4.3 4.6 3.2 7.4 3.8 10.7-.2.2-.2.4-.5.7-.8 10.9 10.4 12.9 21.6 13.1 27.2.1 2.3 1.4 1.4 2.2.3 15.1-23.5 10.7-40.2 4.3-50.1 5.6-6.6 11.9-14.1 18.2-21.9 17.6-21.7 6.9-59.1 4.8-60.6zM84.1 141.7c-.1.2-.2.3-.3.4-7.2 9.7-17.2 14.5-22.7 10.8s-4.3-14.8 2.7-24.6c.1-.2.2-.3.3-.4.5-.7 1.1-1.4 1.7-1.9 2.6 1.9 6 4.2 9.3 6.6 3.7 2.6 7.4 5.2 10.1 7.2-.3.5-.7 1.2-1.1 1.9zm42.1-57.2c-5 7-14.7 8.7-21.8 3.8-7-5-8.7-14.7-3.8-21.8 5-7.1 14.7-8.7 21.8-3.8 7.1 5 8.8 14.8 3.8 21.8z" fill="#fff"/></svg>